<?xml version="1.0" encoding="utf-8"?>
<!-- Generator: Adobe Illustrator 26.0.1, SVG Export Plug-In . SVG Version: 6.00 Build 0)  -->
<svg version="1.1" id="图层_1" xmlns="http://www.w3.org/2000/svg" xmlns:xlink="http://www.w3.org/1999/xlink" x="0px" y="0px"
	 viewBox="0 0 50 50" style="enable-background:new 0 0 50 50;" xml:space="preserve">
<g>
	<path d="M13.8,45.8c-1.6,0-2.8-0.3-3.8-0.9c-1-0.6-1.5-1.3-1.5-2.1c0-0.6,0.3-1.3,1-2c0.6-0.7,1.7-1.4,3.1-1.9
		c2.2-0.9,4.5-1.5,7-1.8c2.5-0.3,5-0.4,7.6-0.4c0.7-1.1,1.3-2.4,1.9-3.8c0.5-1.5,1-3,1.5-4.6c0.4-1.6,0.8-3.1,1.2-4.6
		c-0.4,0.9-0.9,2-1.6,3.1c-0.7,1.2-1.4,2.3-2.3,3.4c-0.9,1.1-1.8,2-2.9,2.7c-1.3,0.9-2.6,1.3-4,1.3c-1,0-1.9-0.3-2.6-0.9
		c-0.7-0.6-1.1-1.6-1.1-2.8c0-0.1,0-0.3,0-0.4c0-0.2,0-0.3,0.1-0.5c0.2-1.1,0.5-2.3,1.1-3.6c0.5-1.3,1.2-2.6,1.9-3.8
		c0.7-1.3,1.4-2.4,2-3.4c0.7-1.2,1.3-2.3,1.9-3.5c0.5-1.2,0.9-2.4,1.2-3.5c0.3-1.1,0.4-2.1,0.4-2.9c0-0.6-0.1-1.2-0.3-1.7
		c-0.2-0.5-0.5-0.9-0.9-1.2C23.5,5.3,22.3,5,21,5c-1.4,0-2.9,0.3-4.5,1c-1.6,0.6-3.1,1.5-4.6,2.6c-1.5,1.1-2.9,2.4-4,3.8
		c-1.2,1.4-2.1,2.9-2.7,4.4c-0.4,1-0.7,1.9-0.9,2.7C4,20.2,3.9,21,3.9,21.7c0,1.2,0.2,2.2,0.7,3c0.5,0.8,1.1,1.4,1.8,1.8
		c0.8,0.4,1.6,0.6,2.4,0.6c0.7,0,1.4-0.1,2.1-0.4c0.8-0.3,1.5-0.7,2.2-1.3s1.3-1.3,1.8-2.1c0.5-0.8,0.9-1.6,1.2-2.4
		c0.3-0.8,0.4-1.5,0.4-2.2c0-0.6-0.2-1.2-0.5-1.6c-0.3-0.4-0.9-0.6-1.6-0.6c-0.3,0-0.6,0-0.9,0.1c-0.1,0-0.2,0-0.2,0s-0.1,0-0.2,0
		c-0.2,0-0.3,0-0.3-0.1c0,0,0.1-0.1,0.2-0.2c0.1-0.1,0.3-0.2,0.4-0.2c0.6-0.2,1.2-0.2,1.6-0.2c0.9,0,1.6,0.3,2,0.8
		c0.4,0.5,0.6,1.2,0.6,2c0,0.9-0.3,2-0.9,3.1c-0.6,1.1-1.4,2.2-2.4,3.3c-1,1-2.3,1.9-3.8,2.5C10.1,27.8,9.3,28,8.4,28
		c-1.1,0-2.2-0.3-3.1-0.9c-1-0.6-1.8-1.4-2.4-2.4C2.3,23.7,2,22.4,2,21c0-0.9,0.1-1.7,0.3-2.6c0.2-0.8,0.5-1.7,1-2.6
		c0.8-1.7,1.9-3.3,3.3-4.7C8,9.7,9.5,8.5,11.1,7.4c1.6-1,3.3-1.9,5-2.4c1.7-0.6,3.3-0.9,4.8-0.9c0.6,0,1.3,0.1,1.8,0.2
		c0.6,0.1,1.1,0.3,1.6,0.5c1.2,0.5,2,1.2,2.5,2.2c0.5,0.9,0.7,2,0.7,3.1c0,1.3-0.3,2.6-0.8,4.1c-0.5,1.4-1.2,2.8-2,4.2
		c-0.8,1.3-1.5,2.6-2.2,4c-0.7,1.4-1.4,2.7-1.9,4c-0.5,1.3-0.9,2.5-1.1,3.5c0,0.2-0.1,0.4-0.1,0.7c0,0.2,0,0.4,0,0.6
		c0,0.8,0.2,1.4,0.6,1.7c0.4,0.4,0.9,0.5,1.4,0.5c0.9,0,1.9-0.4,3-1.1c0.8-0.6,1.6-1.3,2.4-2.3s1.5-2,2.2-3.2
		c0.7-1.1,1.3-2.3,1.8-3.5c0.5-1.2,1-2.3,1.4-3.3c0.4-1,0.7-1.9,0.9-2.6c0-0.2,0.2-0.4,0.5-0.7c0.3-0.3,0.6-0.4,0.8-0.4
		c0.2,0,0.3,0.1,0.5,0.3c0.1,0.2,0.2,0.5,0.2,0.9c0,0.4-0.1,1.1-0.3,2c-0.3,1.3-0.7,2.7-1.1,4.3c-0.4,1.5-0.9,3.1-1.5,4.7
		c-0.5,1.6-1.1,3.1-1.7,4.5c-0.6,1.4-1.2,2.7-1.8,3.7c0.6,0,1.4,0,2.2,0c0.9,0,1.7-0.1,2.6-0.2c0.9-0.1,1.7-0.3,2.5-0.5
		c0.8-0.2,1.4-0.6,1.8-1c0.5-0.4,0.7-1,0.7-1.6v-0.2c0-0.2,0-0.3,0.1-0.3c0.1,0,0.2,0.2,0.3,0.5c0,0.1,0,0.1,0.1,0.2
		c0,0.1,0,0.1,0,0.2c0,0.5-0.2,1-0.6,1.6c-0.4,0.6-1,1.1-2,1.5c-0.8,0.3-2,0.5-3.5,0.6c-1.5,0.1-3.1,0.1-4.8,0.1
		c-1.1,1.7-2.5,3.2-4.2,4.4c-1.7,1.2-3.4,2.2-5.1,2.8c-0.9,0.4-1.8,0.6-2.7,0.8C15.4,45.8,14.5,45.8,13.8,45.8z M14,44.9
		c0.6,0,1.3-0.1,2.1-0.2c0.8-0.1,1.5-0.3,2.2-0.6c1.5-0.6,3-1.4,4.5-2.4s2.8-2.4,3.8-4c-1.5,0-3.1,0.1-4.6,0.2
		c-1.6,0.1-3.1,0.4-4.6,0.8c-1.5,0.4-2.9,1-4.3,1.8c-1,0.6-1.7,1.1-2.2,1.6c-0.4,0.5-0.7,0.9-0.7,1.3c0,0.5,0.3,0.9,1,1.2
		C12.1,44.8,13,44.9,14,44.9z"/>
	<path d="M35.1,32.9c-0.5,0-1-0.1-1.6-0.2c-0.6-0.1-1-0.3-1.5-0.6v-0.2l0.2-0.2l0.2-0.1c0.3,0.2,0.7,0.3,1.1,0.4
		c0.4,0.1,0.8,0.1,1.2,0.1c0.9,0,1.8-0.2,2.7-0.7c0.9-0.5,1.8-1.1,2.6-1.9c0.8-0.8,1.5-1.6,2-2.5c0.5-0.9,0.8-1.8,0.8-2.7
		c0-0.7-0.2-1.2-0.7-1.6c-0.5-0.3-1-0.5-1.6-0.5c-0.4,0-0.8,0.1-1.2,0.2c-0.4,0.1-0.8,0.2-1.2,0.3l-0.2-0.1l0-0.3l0.1-0.2
		c0.6-0.2,1.3-0.6,2.2-1c0.9-0.4,1.7-0.9,2.6-1.5c0.8-0.6,1.6-1.2,2.1-1.9c0.6-0.7,0.8-1.5,0.8-2.3c0-0.8-0.4-1.2-1.3-1.2
		c-0.6,0-1.2,0.2-1.8,0.5C42,15,41.5,15.4,41,15.8c-0.5,0.5-0.9,0.9-1.3,1.3h-0.2l-0.2-0.2v-0.2c0.5-0.6,1.1-1.2,1.7-1.8
		c0.6-0.6,1.3-1,2.1-1.4c0.7-0.4,1.5-0.5,2.4-0.5c0.7,0,1.3,0.2,1.8,0.5c0.5,0.3,0.8,0.8,0.8,1.6c0,0.8-0.3,1.6-0.8,2.3
		c-0.5,0.7-1.2,1.3-2,1.8c-0.8,0.5-1.6,1-2.5,1.4c-0.8,0.4-1.6,0.7-2.3,0.9c0.7,0,1.4,0.1,2.1,0.3c0.7,0.2,1.3,0.5,1.8,0.9
		c0.5,0.4,0.7,1.1,0.7,1.9c0,1-0.3,2-1,3c-0.6,1-1.5,1.9-2.5,2.7c-1,0.8-2.1,1.4-3.3,1.9C37.2,32.6,36.1,32.9,35.1,32.9z"/>
</g>
</svg>
