<?xml version="1.0" encoding="utf-8"?>
<!-- Generator: Adobe Illustrator 26.0.1, SVG Export Plug-In . SVG Version: 6.00 Build 0)  -->
<svg version="1.1" id="图层_1" xmlns="http://www.w3.org/2000/svg" xmlns:xlink="http://www.w3.org/1999/xlink" x="0px" y="0px"
	 viewBox="0 0 68 68" style="enable-background:new 0 0 68 68;" xml:space="preserve">
<style type="text/css">
	.st0{fill:#F2F2F2;}
</style>
<path class="st0" d="M34,68L34,68C15.22,68,0,52.78,0,34l0,0C0,15.22,15.22,0,34,0l0,0c18.78,0,34,15.22,34,34l0,0
	C68,52.78,52.78,68,34,68z"/>
<g>
	<g>
		<path d="M27.04,25.24c0.37-0.28,0.73-0.5,1.08-0.66c0.35-0.16,0.67-0.26,0.95-0.32c0.31-0.08,0.62-0.11,0.93-0.08
			c0.76,0.06,1.24,0.3,1.42,0.72c0.18,0.42,0.2,1.1,0.06,2.03c-0.08,0.48-0.25,1.09-0.51,1.82c-0.25,0.73-0.55,1.63-0.89,2.69
			c-0.34,1.06-0.7,2.27-1.08,3.62s-0.74,2.88-1.08,4.58c-0.34,1.38-0.71,2.98-1.1,4.79c-0.34,1.58-0.74,3.49-1.21,5.72
			c-0.47,2.23-0.97,4.79-1.5,7.67c-0.14,0.71-0.44,1.12-0.91,1.23c-0.47,0.11-0.95,0.06-1.46-0.17c-0.2-0.11-0.38-0.24-0.55-0.38
			c-0.14-0.14-0.3-0.3-0.47-0.49c-0.17-0.18-0.31-0.43-0.42-0.74c0.65-2.37,1.22-4.53,1.72-6.48c0.49-1.95,0.94-3.64,1.33-5.08
			c0.42-1.67,0.82-3.16,1.19-4.49c0.14-0.59,0.28-1.18,0.4-1.76c0.13-0.58,0.26-1.15,0.4-1.72c-0.37,0.59-0.76,1.16-1.19,1.69
			c-0.42,0.54-0.89,1-1.4,1.4s-1.05,0.7-1.63,0.91c-0.58,0.21-1.18,0.28-1.8,0.19c-1.53-0.2-2.61-0.76-3.24-1.69
			c-0.64-0.93-0.91-2.15-0.83-3.64c0.03-0.59,0.11-1.24,0.25-1.95c0.14-0.71,0.3-1.38,0.47-2.03c0.17-0.65,0.33-1.24,0.49-1.76
			c0.16-0.52,0.28-0.9,0.36-1.12c0.34-1.07,0.59-1.99,0.74-2.75c0.16-0.76,0.04-1.4-0.36-1.91c0.4-0.25,0.77-0.43,1.12-0.53
			c0.35-0.1,0.67-0.18,0.95-0.23c0.31-0.03,0.62-0.03,0.93,0c0.76,0.11,1.21,0.4,1.33,0.85c0.13,0.45,0.08,1.13-0.15,2.03
			c-0.11,0.48-0.3,1.09-0.55,1.84c-0.25,0.75-0.52,1.52-0.81,2.31c-0.28,0.79-0.54,1.52-0.76,2.18s-0.35,1.14-0.38,1.42
			c-0.25,1.27-0.27,2.25-0.04,2.94c0.23,0.69,0.72,1.04,1.48,1.04c0.37,0,0.78-0.16,1.23-0.49c0.45-0.32,0.91-0.76,1.38-1.29
			c0.47-0.54,0.93-1.15,1.38-1.84s0.87-1.39,1.25-2.1s0.72-1.4,1.02-2.08c0.3-0.68,0.52-1.29,0.66-1.82
			c0.2-1.05,0.32-1.86,0.38-2.46S27.49,25.72,27.04,25.24z"/>
		<path d="M50.17,30.92c-0.03,1.1-0.28,2.3-0.76,3.58c-0.48,1.29-1.15,2.48-2.01,3.58s-1.89,2.02-3.09,2.75
			c-1.2,0.73-2.54,1.1-4,1.1c-1.5,0-2.7-0.22-3.6-0.66s-1.61-0.97-2.12-1.59c-0.51-0.62-0.85-1.27-1.02-1.95
			c-0.17-0.68-0.25-1.24-0.25-1.69c0-0.45,0.18-0.81,0.53-1.06s0.77-0.44,1.25-0.57c0.48-0.13,0.97-0.21,1.48-0.25
			c0.51-0.04,0.93-0.06,1.27-0.06c-0.08,0.25-0.16,0.66-0.21,1.23c-0.06,0.56,0,1.12,0.17,1.67s0.49,1.04,0.97,1.46
			c0.48,0.42,1.21,0.64,2.2,0.64c0.76,0,1.49-0.28,2.18-0.83s1.3-1.25,1.82-2.1c0.52-0.85,0.94-1.78,1.25-2.8
			c0.31-1.02,0.48-1.99,0.51-2.92c0.03-0.96-0.17-1.75-0.59-2.37c-0.42-0.62-1.09-0.93-1.99-0.93c-0.37,0-0.75,0.04-1.14,0.13
			c-0.34,0.06-0.72,0.16-1.14,0.32c-0.42,0.16-0.88,0.36-1.36,0.61l-0.93-2.42c0.96-0.42,1.99-0.97,3.09-1.65s2.13-1.5,3.07-2.46
			c0.95-0.96,1.74-2.06,2.37-3.28s0.98-2.61,1.04-4.13c0.06-0.9-0.18-1.64-0.7-2.2s-1.29-0.85-2.31-0.85
			c-0.51,0-1.07,0.12-1.67,0.36s-1.18,0.58-1.72,1.02c-0.54,0.44-0.98,0.97-1.33,1.59c-0.35,0.62-0.54,1.31-0.57,2.08
			c0,0.42,0.06,0.79,0.17,1.1c0.08,0.28,0.23,0.54,0.44,0.76c0.21,0.23,0.52,0.34,0.91,0.34c-0.4,0.28-0.77,0.5-1.12,0.66
			s-0.66,0.26-0.91,0.32c-0.31,0.08-0.59,0.13-0.85,0.13c-0.34,0-0.67-0.06-1-0.17s-0.61-0.3-0.87-0.55
			c-0.25-0.25-0.46-0.59-0.61-1.02c-0.16-0.42-0.22-0.95-0.19-1.57c0.03-0.62,0.22-1.36,0.57-2.2s0.91-1.65,1.67-2.42
			c0.76-0.76,1.75-1.41,2.97-1.95s2.71-0.81,4.49-0.81c0.79,0,1.57,0.12,2.33,0.36c0.76,0.24,1.44,0.61,2.03,1.12
			c0.59,0.51,1.06,1.15,1.4,1.93c0.34,0.78,0.49,1.7,0.47,2.78c-0.03,0.85-0.23,1.75-0.59,2.71c-0.37,0.96-0.88,1.91-1.53,2.84
			c-0.65,0.93-1.43,1.82-2.35,2.67c-0.92,0.85-1.96,1.6-3.11,2.25c0.51,0,1.07,0.08,1.67,0.23c0.61,0.16,1.16,0.43,1.65,0.83
			c0.49,0.4,0.9,0.94,1.23,1.63C50.05,28.92,50.2,29.82,50.17,30.92z"/>
	</g>
	<g>
		<path d="M35.34,49.95c-0.08-0.19-0.17-0.38-0.27-0.57c-0.1-0.19-0.2-0.38-0.29-0.56c-0.07-0.14-0.14-0.3-0.2-0.47
			c-0.05-0.14-0.1-0.31-0.16-0.5c-0.06-0.19-0.1-0.41-0.13-0.64c0.15-0.18,0.27-0.33,0.35-0.45c0.08-0.12,0.14-0.22,0.18-0.3
			c0.04-0.08,0.07-0.15,0.09-0.2c0.02-0.1-0.01-0.2-0.09-0.3c-0.08-0.1-0.19-0.19-0.32-0.27c-0.16-0.08-0.35-0.08-0.55-0.01
			s-0.4,0.19-0.59,0.34c-0.19,0.15-0.36,0.32-0.5,0.51c-0.14,0.19-0.23,0.35-0.27,0.5c-0.05,0.17-0.04,0.33,0.04,0.46
			c0.08,0.13,0.1,0.24,0.08,0.32c-0.01,0.03-0.07,0.12-0.17,0.27c-0.1,0.15-0.21,0.32-0.34,0.5c-0.12,0.19-0.24,0.37-0.37,0.55
			c-0.12,0.18-0.21,0.31-0.27,0.39c-0.08,0.12-0.12,0.23-0.11,0.31c0.01,0.09,0.03,0.15,0.08,0.2c0.05,0.05,0.11,0.06,0.19,0.05
			s0.16-0.07,0.24-0.16c0.05-0.06,0.14-0.18,0.27-0.34c0.13-0.17,0.27-0.35,0.42-0.55c0.15-0.2,0.28-0.39,0.41-0.57
			c0.13-0.18,0.22-0.32,0.27-0.4c0.02,0.04,0.05,0.11,0.08,0.22c0.04,0.11,0.07,0.22,0.11,0.33c0.04,0.13,0.09,0.27,0.15,0.43
			c0.07,0.2,0.16,0.43,0.26,0.67c0.1,0.24,0.2,0.49,0.28,0.72c0.09,0.24,0.15,0.46,0.19,0.67c0.04,0.21,0.04,0.37,0,0.48
			c-0.04,0.11-0.1,0.2-0.19,0.27c-0.09,0.07-0.18,0.13-0.27,0.17c-0.1,0.04-0.19,0.06-0.29,0.06s-0.18-0.02-0.24-0.06
			c-0.05-0.04-0.11-0.12-0.17-0.23c-0.05-0.1-0.12-0.24-0.2-0.42s-0.17-0.42-0.27-0.74c-0.12,0.04-0.23,0.08-0.32,0.11
			s-0.16,0.06-0.21,0.09c-0.06,0.04-0.11,0.08-0.15,0.11c-0.1,0.09-0.18,0.17-0.23,0.24c-0.05,0.07-0.11,0.17-0.17,0.29
			c-0.05,0.09-0.04,0.22,0.02,0.4c0.07,0.17,0.17,0.35,0.3,0.53c0.14,0.18,0.3,0.33,0.5,0.47c0.2,0.13,0.4,0.2,0.62,0.2
			c0.3,0,0.6-0.08,0.88-0.24c0.28-0.16,0.53-0.36,0.75-0.59s0.4-0.47,0.55-0.71c0.15-0.24,0.24-0.45,0.27-0.63
			c0.02-0.11,0.01-0.25-0.05-0.41C35.48,50.31,35.42,50.14,35.34,49.95z"/>
		<path d="M49.14,46.8c-0.07-0.15-0.24-0.24-0.51-0.26c-0.11-0.01-0.22,0-0.34,0.03c-0.1,0.02-0.22,0.06-0.34,0.11
			c-0.13,0.06-0.26,0.13-0.39,0.24c0.16,0.17,0.23,0.37,0.21,0.58c-0.02,0.21-0.07,0.51-0.14,0.88c-0.05,0.19-0.13,0.41-0.24,0.66
			c-0.11,0.24-0.23,0.49-0.37,0.75c-0.14,0.25-0.29,0.51-0.45,0.75c-0.16,0.25-0.33,0.47-0.5,0.66c-0.17,0.19-0.33,0.35-0.5,0.47
			c-0.16,0.12-0.31,0.18-0.44,0.18c-0.27,0-0.45-0.12-0.53-0.37c-0.08-0.25-0.08-0.6,0.02-1.06c0.01-0.1,0.06-0.27,0.14-0.51
			c0.08-0.24,0.17-0.5,0.27-0.79c0.1-0.28,0.2-0.56,0.29-0.83c0.09-0.27,0.16-0.49,0.2-0.66c0.08-0.33,0.1-0.57,0.05-0.73
			c-0.05-0.16-0.21-0.26-0.48-0.3c-0.11-0.01-0.22-0.01-0.34,0c-0.1,0.02-0.22,0.05-0.34,0.08c-0.13,0.04-0.26,0.1-0.4,0.19
			c0.14,0.18,0.19,0.41,0.13,0.69c-0.06,0.27-0.14,0.6-0.27,0.99c-0.03,0.08-0.07,0.22-0.13,0.4c-0.06,0.19-0.11,0.4-0.18,0.63
			c-0.03,0.13-0.06,0.27-0.09,0.41c-0.15,0.19-0.3,0.38-0.46,0.58c-0.2,0.24-0.39,0.46-0.57,0.66c-0.18,0.2-0.36,0.36-0.52,0.49
			c-0.16,0.13-0.29,0.19-0.4,0.19c-0.12,0-0.22-0.03-0.28-0.08c-0.07-0.06-0.11-0.13-0.14-0.22s-0.05-0.19-0.05-0.3s0-0.21,0.01-0.3
			c0.03-0.15,0.06-0.28,0.08-0.38c0.02-0.1,0.04-0.19,0.05-0.27c0.02-0.08,0.03-0.15,0.05-0.23s0.03-0.16,0.05-0.25
			c0.1-0.47,0.18-0.85,0.24-1.14s0.11-0.53,0.14-0.7c0.03-0.17,0.05-0.29,0.05-0.36s-0.01-0.11-0.02-0.13
			c-0.02-0.01-0.06-0.02-0.12-0.02c-0.05,0-0.12,0.01-0.22,0.02c-0.1,0.01-0.22,0.03-0.36,0.06c0.21-0.33,0.3-0.59,0.25-0.79
			c-0.05-0.2-0.14-0.35-0.28-0.45c-0.17-0.11-0.4-0.19-0.67-0.24c-0.23-0.02-0.53,0.06-0.88,0.24c-0.36,0.18-0.72,0.45-1.08,0.82
			c-0.37,0.36-0.7,0.8-1.01,1.3c-0.31,0.51-0.54,1.07-0.68,1.69c-0.11,0.46-0.15,0.85-0.12,1.18c0.03,0.33,0.1,0.6,0.21,0.81
			s0.25,0.36,0.41,0.46c0.16,0.1,0.32,0.14,0.46,0.14c0.3-0.02,0.61-0.09,0.91-0.2c0.26-0.1,0.54-0.26,0.84-0.48
			s0.56-0.53,0.81-0.94c-0.01,0.27,0.01,0.5,0.05,0.69s0.09,0.33,0.14,0.44c0.06,0.13,0.14,0.23,0.23,0.3
			c0.09,0.06,0.2,0.1,0.32,0.13c0.12,0.03,0.25,0.03,0.39,0.02c0.14-0.01,0.27-0.04,0.4-0.08c0.13-0.04,0.25-0.09,0.35-0.15
			c0.15-0.1,0.34-0.28,0.57-0.53c0.23-0.25,0.46-0.52,0.7-0.82c0,0,0,0,0,0c0,0.47,0.08,0.87,0.29,1.17
			c0.23,0.34,0.62,0.54,1.17,0.61c0.22,0.03,0.44,0.01,0.65-0.07s0.4-0.19,0.59-0.33c0.18-0.14,0.35-0.31,0.5-0.5
			c0.15-0.19,0.29-0.4,0.43-0.61c-0.05,0.2-0.1,0.41-0.14,0.62c-0.05,0.21-0.09,0.42-0.14,0.63c-0.13,0.48-0.27,1.02-0.43,1.62
			c-0.14,0.52-0.3,1.13-0.48,1.83c-0.18,0.7-0.38,1.48-0.62,2.33c0.04,0.11,0.09,0.2,0.15,0.27s0.12,0.12,0.17,0.18
			c0.06,0.05,0.13,0.1,0.2,0.14c0.18,0.08,0.36,0.1,0.53,0.06s0.28-0.19,0.33-0.44c0.19-1.04,0.37-1.96,0.54-2.76
			c0.17-0.8,0.31-1.49,0.43-2.06c0.14-0.65,0.27-1.22,0.4-1.72c0.12-0.61,0.25-1.16,0.39-1.65c0.14-0.49,0.27-0.92,0.39-1.3
			c0.12-0.38,0.23-0.7,0.32-0.97c0.09-0.26,0.15-0.48,0.18-0.66C49.22,47.2,49.21,46.96,49.14,46.8z M40.59,48.03
			c-0.03,0.17-0.06,0.38-0.11,0.63c-0.05,0.25-0.11,0.52-0.18,0.79c-0.07,0.27-0.13,0.51-0.18,0.72c-0.01,0.05-0.05,0.13-0.13,0.24
			s-0.17,0.23-0.29,0.37c-0.12,0.13-0.25,0.26-0.4,0.38c-0.15,0.12-0.29,0.22-0.44,0.3c-0.15,0.08-0.29,0.12-0.43,0.12
			c-0.14,0.01-0.27-0.05-0.38-0.16c-0.06-0.06-0.1-0.19-0.12-0.39c-0.02-0.2-0.01-0.43,0.02-0.69s0.1-0.55,0.19-0.85
			c0.09-0.3,0.21-0.58,0.37-0.85c0.37-0.64,0.69-1.08,0.97-1.32c0.28-0.24,0.48-0.31,0.59-0.22c0.03,0.04,0.05,0.1,0.06,0.17
			c0.01,0.06,0.01,0.14-0.01,0.25s-0.06,0.24-0.14,0.4c0.08-0.02,0.16-0.04,0.24-0.05c0.08-0.01,0.15-0.03,0.2-0.05
			c0.06-0.02,0.12-0.04,0.17-0.05C40.61,47.78,40.61,47.86,40.59,48.03z"/>
	</g>
</g>
</svg>
